<?xml version="1.0" encoding="UTF-8" standalone="no" ?>
<!DOCTYPE svg PUBLIC "-//W3C//DTD SVG 1.1//EN" "http://www.w3.org/Graphics/SVG/1.1/DTD/svg11.dtd">
<svg xmlns="http://www.w3.org/2000/svg" xmlns:xlink="http://www.w3.org/1999/xlink" version="1.1" width="400" height="400" viewBox="0 0 400 400" xml:space="preserve">
<desc>Created with Fabric.js 3.6.2</desc>
<defs>
</defs>
<g transform="matrix(4.17 0 0 4.17 200 233.33)" id="Layer_1"  >
<rect style="stroke: none; stroke-width: 1; stroke-dasharray: none; stroke-linecap: butt; stroke-dashoffset: 0; stroke-linejoin: miter; stroke-miterlimit: 4; fill: rgb(232,148,25); fill-rule: nonzero; opacity: 1;"  x="-21" y="-10" rx="0" ry="0" width="42" height="20" />
</g>
<g transform="matrix(4.17 0 0 4.17 214.58 118.75)" id="Layer_1"  >
<path style="stroke: none; stroke-width: 1; stroke-dasharray: none; stroke-linecap: butt; stroke-dashoffset: 0; stroke-linejoin: miter; stroke-miterlimit: 4; fill: rgb(198,40,40); fill-rule: nonzero; opacity: 1;"  transform=" translate(-27.5, -4.5)" d="M 31 3 v 4 h -2.2 c -2.4 0 -1.2 -1 -4.8 -1 V 2 c 3.6 0 2.4 1 4.8 1 H 31 z" stroke-linecap="round" />
</g>
<g transform="matrix(4.17 0 0 4.17 131.25 218.75)" id="Layer_1"  >
<rect style="stroke: none; stroke-width: 1; stroke-dasharray: none; stroke-linecap: butt; stroke-dashoffset: 0; stroke-linejoin: miter; stroke-miterlimit: 4; fill: rgb(128,90,38); fill-rule: nonzero; opacity: 1;"  x="-1.5" y="-2.5" rx="0" ry="0" width="3" height="5" />
</g>
<g transform="matrix(4.17 0 0 4.17 152.08 218.75)" id="Layer_1"  >
<rect style="stroke: none; stroke-width: 1; stroke-dasharray: none; stroke-linecap: butt; stroke-dashoffset: 0; stroke-linejoin: miter; stroke-miterlimit: 4; fill: rgb(128,90,38); fill-rule: nonzero; opacity: 1;"  x="-1.5" y="-2.5" rx="0" ry="0" width="3" height="5" />
</g>
<g transform="matrix(4.17 0 0 4.17 152.08 252.08)" id="Layer_1"  >
<rect style="stroke: none; stroke-width: 1; stroke-dasharray: none; stroke-linecap: butt; stroke-dashoffset: 0; stroke-linejoin: miter; stroke-miterlimit: 4; fill: rgb(128,90,38); fill-rule: nonzero; opacity: 1;"  x="-1.5" y="-2.5" rx="0" ry="0" width="3" height="5" />
</g>
<g transform="matrix(4.17 0 0 4.17 131.25 252.08)" id="Layer_1"  >
<rect style="stroke: none; stroke-width: 1; stroke-dasharray: none; stroke-linecap: butt; stroke-dashoffset: 0; stroke-linejoin: miter; stroke-miterlimit: 4; fill: rgb(128,90,38); fill-rule: nonzero; opacity: 1;"  x="-1.5" y="-2.5" rx="0" ry="0" width="3" height="5" />
</g>
<g transform="matrix(4.17 0 0 4.17 247.92 218.75)" id="Layer_1"  >
<rect style="stroke: none; stroke-width: 1; stroke-dasharray: none; stroke-linecap: butt; stroke-dashoffset: 0; stroke-linejoin: miter; stroke-miterlimit: 4; fill: rgb(128,90,38); fill-rule: nonzero; opacity: 1;"  x="-1.5" y="-2.5" rx="0" ry="0" width="3" height="5" />
</g>
<g transform="matrix(4.17 0 0 4.17 268.75 218.75)" id="Layer_1"  >
<rect style="stroke: none; stroke-width: 1; stroke-dasharray: none; stroke-linecap: butt; stroke-dashoffset: 0; stroke-linejoin: miter; stroke-miterlimit: 4; fill: rgb(128,90,38); fill-rule: nonzero; opacity: 1;"  x="-1.5" y="-2.5" rx="0" ry="0" width="3" height="5" />
</g>
<g transform="matrix(4.17 0 0 4.17 268.75 252.08)" id="Layer_1"  >
<rect style="stroke: none; stroke-width: 1; stroke-dasharray: none; stroke-linecap: butt; stroke-dashoffset: 0; stroke-linejoin: miter; stroke-miterlimit: 4; fill: rgb(128,90,38); fill-rule: nonzero; opacity: 1;"  x="-1.5" y="-2.5" rx="0" ry="0" width="3" height="5" />
</g>
<g transform="matrix(4.17 0 0 4.17 247.92 252.08)" id="Layer_1"  >
<rect style="stroke: none; stroke-width: 1; stroke-dasharray: none; stroke-linecap: butt; stroke-dashoffset: 0; stroke-linejoin: miter; stroke-miterlimit: 4; fill: rgb(128,90,38); fill-rule: nonzero; opacity: 1;"  x="-1.5" y="-2.5" rx="0" ry="0" width="3" height="5" />
</g>
<g transform="matrix(4.17 0 0 4.17 200 183.33)" id="Layer_1"  >
<rect style="stroke: none; stroke-width: 1; stroke-dasharray: none; stroke-linecap: butt; stroke-dashoffset: 0; stroke-linejoin: miter; stroke-miterlimit: 4; fill: rgb(0,121,107); fill-rule: nonzero; opacity: 1;"  x="-21" y="-3" rx="0" ry="0" width="42" height="6" />
</g>
<g transform="matrix(4.17 0 0 4.17 200 207.29)" id="Layer_1"  >
<polygon style="stroke: none; stroke-width: 1; stroke-dasharray: none; stroke-linecap: butt; stroke-dashoffset: 0; stroke-linejoin: miter; stroke-miterlimit: 4; fill: rgb(255,183,77); fill-rule: nonzero; opacity: 1;"  points="0,-16.25 -7,-9.25 -7,16.25 7,16.25 7,-9.25 " />
</g>
<g transform="matrix(4.17 0 0 4.17 200 200)" id="Layer_1"  >
<circle style="stroke: none; stroke-width: 1; stroke-dasharray: none; stroke-linecap: butt; stroke-dashoffset: 0; stroke-linejoin: miter; stroke-miterlimit: 4; fill: rgb(250,250,250); fill-rule: nonzero; opacity: 1;"  cx="0" cy="0" r="5" />
</g>
<g transform="matrix(4.17 0 0 4.17 204.17 195.83)" id="Layer_1"  >
<path style="stroke: none; stroke-width: 1; stroke-dasharray: none; stroke-linecap: butt; stroke-dashoffset: 0; stroke-linejoin: miter; stroke-miterlimit: 4; fill: rgb(121,85,72); fill-rule: nonzero; opacity: 1;"  transform=" translate(-25, -23)" d="M 26 25 h -2 c -0.6 0 -1 -0.4 -1 -1 v -2 c 0 -0.6 0.4 -1 1 -1 s 1 0.4 1 1 v 1 h 1 c 0.6 0 1 0.4 1 1 S 26.6 25 26 25 z" stroke-linecap="round" />
</g>
<g transform="matrix(4.17 0 0 4.17 200 158.13)" id="Layer_1"  >
<polygon style="stroke: none; stroke-width: 1; stroke-dasharray: none; stroke-linecap: butt; stroke-dashoffset: 0; stroke-linejoin: miter; stroke-miterlimit: 4; fill: rgb(77,182,172); fill-rule: nonzero; opacity: 1;"  points="0,-5.95 -9,3.05 -9,5.95 0,-3.05 9,5.95 9,3.05 " />
</g>
<g transform="matrix(4.17 0 0 4.17 200 254.17)" id="Layer_1"  >
<path style="stroke: none; stroke-width: 1; stroke-dasharray: none; stroke-linecap: butt; stroke-dashoffset: 0; stroke-linejoin: miter; stroke-miterlimit: 4; fill: rgb(128,90,38); fill-rule: nonzero; opacity: 1;"  transform=" translate(-24, -37)" d="M 24 32 c -1.7 0 -3 1.3 -3 3 s 0 7 0 7 h 6 c 0 0 0 -5.3 0 -7 S 25.7 32 24 32 z" stroke-linecap="round" />
</g>
</svg>